.
 
http://www.scenetime.com    -  Hottest private tracker on the net. !!!

New release on http://www.scenetime.com

        Seed back for speed


...................................NFO:.................................................[img]http://img684.imageshack.us/img684/3557/bigsdl.jpg[/img]


[color=blue][size=5][b]The.Big.Year.2011.DVDRip.XVID.AC3.HQ.Hive-CM8[/b][/size][/color]


[b] Thx Hive

CM8 Doing it right the first time :D

Source: DVD-R Replica
thx

Video: 720x304 @bitrate 1700 2pass
Audio: English AC3 5.1 @448
Sample: yes included
Subs: yes english in srt /subs[/b]


[url]http://www.imdb.com/title/tt1053810/[/url]


General
Complete name                  : The.Big.Year.2011.DVDRip.XVID.AC3.HQ.Hive-CM8.avi
Format                         : AVI
Format/Info                    : Audio Video Interleave
File size                      : 1.51 GiB
Duration                       : 1h 40mn
Overall bit rate               : 2 155 Kbps
Writing application            : Nandub v1.0rc2
Writing library                : Nandub build 1853/release

Video
ID                             : 0
Format                         : MPEG-4 Visual
Format profile                 : Advanced Simple@L5
Format settings, BVOP          : 2
Format settings, QPel          : Yes
Format settings, GMC           : No warppoints
Format settings, Matrix        : Default (H.263)
Muxing mode                    : Packed bitstream
Codec ID                       : XVID
Codec ID/Hint                  : XviD
Duration                       : 1h 40mn
Bit rate                       : 1 697 Kbps
Width                          : 720 pixels
Height                         : 304 pixels
Display aspect ratio           : 2.35:1
Frame rate                     : 23.976 fps
Color space                    : YUV
Chroma subsampling             : 4:2:0
Bit depth                      : 8 bits
Scan type                      : Progressive
Compression mode               : Lossy
Bits/(Pixel*Frame)             : 0.323
Stream size                    : 1.19 GiB (79%)
Writing library                : XviD 1.2.1 (UTC 2008-12-04)

Audio
ID                             : 1
Format                         : AC-3
Format/Info                    : Audio Coding 3
Mode extension                 : CM (complete main)
Codec ID                       : 2000
Duration                       : 1h 40mn
Bit rate mode                  : Constant
Bit rate                       : 448 Kbps
Channel(s)                     : 6 channels
Channel positions              : Front: L C R, Side: L R, LFE
Sampling rate                  : 48.0 KHz
Bit depth                      : 16 bits
Compression mode               : Lossy
Stream size                    : 321 MiB (21%)
Alignment                      : Split accross interleaves
Interleave, duration           : 42 ms (1.00 video frame)
Interleave, preload duration   : 500 ms



Three avid bird watchers compete to spot the rarest birds in North America at a prestigious annual event. 


Jack Black	... 	Brad Harris
Zahf Paroo	... 	Prasad
John Cleese	... 	Historical Montage Narrator
Owen Wilson	... 	Kenny Bostick
Rosamund Pike	... 	Jessica
Steve Martin	... 	Stu Preissler


[img]http://img405.imageshack.us/img405/6537/bibic.png[/img]
[img]http://img3.imageshack.us/img3/7966/bibibi.png[/img]
[img]http://img207.imageshack.us/img207/5272/bibibbii.png[/img]
[img]http://img856.imageshack.us/img856/1383/12891415.png[/img]
[img]http://img189.imageshack.us/img189/6164/bibibbibibibii.png[/img]
[img]http://img217.imageshack.us/img217/2060/bibibbibibii.png[/img]
[img]http://img69.imageshack.us/img69/2710/bibibbibibbbiiibii.png[/img]
[img]http://img823.imageshack.us/img823/3153/bibibbibii.png[/img]
[img]http://img4.imageshack.us/img4/4507/bibibbibibbiibii.png[/img]



Greetz

ViSiON,SPK,SceneLovers,PRESTiGE,SANTi,3LT0N,YanKeeS,MAGNET,THC,T0XiC,LKRG,Feel-Free,FLAWL3SS,
WBZ,BHRG,SiC,26K,NOVA,D2U,SeToNeUp,TED,COPYxRIGHT,jtr,Rapeseed,SAFC,goldadvance,KaN1vE,Unevano,Pinnz,Wayne
Mr Hive,and most P2P groups
Great Work Guys :D

LOOKING FOR ANYTHING YOU WANT TO LOOK AND SOUND BETTER

CM8@hushmail.com